# xmcd CD database file
#
# Track frame offsets:
#	150
#	23407
#	51106
#	65777
#	76836
#	78176
#	86336
#	91247
#	98060
#	110826
#	127821
#	132908
#	140131
#	140880
#	156898
#	174533
#
# Disc length: 2503 seconds
#
# Revision: 0
# Processed by: cddbd v1.5.2PL0 Copyright (c) Steve Scherf et al.
# Submitted via: CDex 1.70beta3
#
DISCID=d109c510
DTITLE=Lord Kelvin - Radio Has No Future
DYEAR=2010
DGENRE=Jazz
TTITLE0=Baron Kelvin of Largs
TTITLE1=The Transatlantic Cable
TTITLE2=The Analog Tide Predictor
TTITLE3=Automatic Curb Sender
TTITLE4=Radio...
TTITLE5=The Mirror Galvanometer
TTITLE6=June 26th 1824
TTITLE7=December 17th 1907
TTITLE8=Kelvin´s Thunderstorm
TTITLE9=The Syphon Recorder
TTITLE10=Has No...
TTITLE11=Fourier is a Mathematical Poem
TTITLE12=Future
TTITLE13=Molecular Dynamics
TTITLE14=Magnetoresistance
TTITLE15=Improved Gyro-compass
EXTD=YEAR: 2010
EXTT0=
EXTT1=
EXTT2=
EXTT3=
EXTT4=
EXTT5=
EXTT6=
EXTT7=
EXTT8=
EXTT9=
EXTT10=
EXTT11=
EXTT12=
EXTT13=
EXTT14=
EXTT15=
PLAYORDER=
